<!DOCTYPE svg PUBLIC "-//W3C//DTD SVG 20010904//EN" "http://www.w3.org/TR/2001/REC-SVG-20010904/DTD/svg10.dtd">
<svg version="1.0" xmlns="http://www.w3.org/2000/svg" width="180px" height="180px" viewBox="0 0 1800 1800" preserveAspectRatio="xMidYMid meet">
<g id="layer101" fill="#38adff" stroke="none">
 <path d="M242 1777 c-100 -42 -182 -126 -221 -225 -21 -53 -21 -64 -19 -665 l3 -612 27 -56 c35 -70 117 -152 188 -187 l55 -27 625 0 625 0 55 27 c71 35 153 117 188 187 l27 56 0 625 0 625 -27 56 c-35 70 -117 152 -188 187 l-55 27 -615 2 c-615 2 -615 2 -668 -20z"/>
 </g>
<g id="layer102" fill="#ffffff" stroke="none">
 <path d="M775 1454 c-11 -2 -45 -9 -75 -15 -138 -28 -239 -100 -354 -254 -114 -151 -121 -165 -121 -255 0 -65 4 -82 29 -125 16 -27 47 -86 70 -130 172 -335 600 -418 874 -169 110 99 169 224 179 377 3 48 8 87 11 87 2 0 31 -7 65 -16 33 -8 72 -12 86 -9 38 9 80 53 87 91 11 60 -44 134 -102 134 -13 0 -15 6 -10 34 19 101 -88 179 -172 127 -30 -19 -41 -36 -56 -84 -5 -14 -16 -7 -65 42 -66 66 -159 122 -241 145 -59 16 -172 27 -205 20z m235 -314 c0 -19 -7 -20 -170 -20 -163 0 -170 1 -170 20 0 19 7 20 170 20 163 0 170 -1 170 -20z m-206 -100 c30 -11 33 -26 10 -51 -18 -20 -11 -61 9 -53 7 2 31 27 52 54 l40 50 61 0 c95 0 96 -12 3 -110 -43 -47 -79 -93 -79 -102 0 -24 44 -62 78 -68 18 -4 27 -11 27 -25 0 -27 -59 -40 -115 -25 -37 10 -41 14 -36 34 6 24 -25 76 -45 76 -13 0 -11 -47 3 -70 20 -31 -3 -45 -72 -43 -33 1 -65 5 -70 8 -15 9 -12 34 5 51 11 12 15 40 15 113 0 75 -4 101 -15 111 -20 17 -19 37 3 49 22 13 93 14 126 1z"/>
 </g>

</svg>